<svg xmlns="http://www.w3.org/2000/svg" width="52" height="52" viewBox="0 0 52 52">
    <path fill="#907CFE" d="M26 0c14.36 0 26 11.64 26 26 0 6.101-2.101 11.711-5.62 16.147.398-.872.62-1.84.62-2.858 0-3.83-3.134-6.933-7-6.933s-7 3.104-7 6.933c0 3.83 3.134 6.933 7 6.933 1.197 0 2.324-.297 3.31-.822C38.713 49.505 32.648 52 26 52 11.64 52 0 40.36 0 26c0-4.644 1.218-9.004 3.351-12.778C2.481 15.191 2 17.362 2 19.644c0 8.935 7.387 16.178 16.5 16.178S35 28.58 35 19.644c0-8.934-7.387-16.177-16.5-16.177-3.775 0-7.254 1.243-10.034 3.334C13.089 2.577 19.244 0 26 0z"/>
</svg>
