<svg xmlns="http://www.w3.org/2000/svg" width="115" height="115" viewBox="0 0 115 115">
    <g fill="none" fill-rule="evenodd">
        <path d="M0 0H115V115H0z"/>
        <path fill="#537CFD" fill-rule="nonzero" d="M81.458 64.313L57.5 88.374 33.542 64.312h14.375v-19.25h19.166v19.25h14.375zm11.26-14.294C89.46 33.464 74.943 21 57.5 21c-13.848 0-25.875 7.892-31.865 19.394C11.212 41.983 0 54.206 0 69.125 0 85.072 12.872 98 28.75 98h62.292c6.354 0 12.448-2.535 16.94-7.048C112.477 86.44 115 80.32 115 73.938c0-12.706-9.823-23.004-22.281-23.919z"/>
    </g>
</svg>
