<svg xmlns="http://www.w3.org/2000/svg" width="64" height="66" viewBox="0 0 64 66">
    <g fill="none" fill-rule="evenodd">
        <path d="M0 0H64V64H0z"/>
        <path fill="#C9D5EA" fill-rule="nonzero" d="M57 41.944c-1.764-.61-3.64-.944-5.6-.944-9.278 0-16.8 7.462-16.8 16.667 0 .944.084 1.86.224 2.777H6.6c-3.093 0-5.6-2.487-5.6-5.555V21.556C1 18.472 3.492 16 6.6 16h44.8c3.093 0 5.6 2.487 5.6 5.556v20.388zm7 10.167L50 66l-9.8-9.722 4.2-4.167 5.6 5.556 9.8-9.723 4.2 4.167zM6.6 21.556v5.555L29 41l22.4-13.889v-5.555L29 35.444 6.6 21.556z"/>
    </g>
</svg>
