<svg xmlns="http://www.w3.org/2000/svg" width="24" height="24" viewBox="0 0 24 24">
    <g fill="none" fill-opacity=".4" fill-rule="evenodd">
        <g fill="#727272">
            <g>
                <g>
                    <path d="M12 0c6.627 0 12 5.373 12 12s-5.373 12-12 12S0 18.627 0 12 5.373 0 12 0zm.816 14.808h-1.584c-.16 0-.16 0-.272.112-.084.084-.084.084-.105.195l-.007.077v1.424c0 .16 0 .16.112.272.084.084.084.084.195.105l.077.007h1.584c.176 0 .176 0 .288-.112.084-.084.084-.084.105-.195l.007-.077v-1.424c0-.16 0-.16-.12-.272-.09-.084-.09-.084-.203-.105l-.077-.007zM12.16 5.64c-1.28 0-1.28 0-2.224.472-.944.472-.944.472-1.448 1.24S7.984 8.12 7.952 9c0 .176 0 .176.104.288.078.084.078.084.188.105l.076.007h1.392c.352 0 .352 0 .464-.368.32-1.552.32-1.552 1.872-1.552.688 0 .688 0 1.176.384s.488.384.424 1.04c-.032.384-.032.384-.296.736s-.264.352-.808.896c-.704.704-.704.704-1.104 1.28-.4.576-.4.576-.48 1.328-.016.176-.016.176-.016.512 0 .128 0 .128.096.224.072.072.072.072.171.09l.069.006h1.584c.176 0 .176 0 .272-.096.096-.096.096-.096.176-.304.016-.144.016-.144.08-.544.096-.448.096-.448.376-.84.28-.392.28-.392.792-.936.704-.768.704-.768 1.064-1.36.36-.592.36-.592.36-1.392 0-.704 0-.704-.392-1.36-.392-.656-.392-.656-1.248-1.08-.856-.424-.856-.424-2.184-.424z" transform="translate(-1260 -987) translate(1260 943) translate(0 44)"/>
                </g>
            </g>
        </g>
    </g>
</svg>
