<svg xmlns="http://www.w3.org/2000/svg" width="24" height="24" viewBox="0 0 24 24">
    <g fill="none" fill-rule="evenodd">
        <g>
            <g>
                <g>
                    <g transform="translate(-1260 -1083) translate(1260 943) translate(0 139)">
                        <path d="M0 0H16V16H0z"/>
                        <circle cx="12" cy="13" r="12" fill="#727272" fill-opacity=".4"/>
                        <g fill="#FFF">
                            <path d="M10.913 3.75c.269 0 .502-.091.7-.271L8.223.001 7.99.174c-.253.192-.46.341-.617.449-.158.107-.369.217-.631.329-.263.111-.507.167-.734.167h-.014c-.227 0-.471-.055-.734-.167-.263-.112-.473-.222-.63-.33C4.47.516 4.263.367 4.01.175L3.777 0 .387 3.479c.198.18.431.271.7.271h9.826z" transform="matrix(1 0 0 -1 6 18) rotate(-180 6 1.875)"/>
                            <path d="M9.602 1.86c-.263-.177-.496-.38-.699-.61v5.417L12 3.529c-.62-.438-1.418-.994-2.398-1.669z" transform="matrix(1 0 0 -1 6 18) rotate(-180 10.452 3.958)"/>
                            <path d="M2.404 1.86C1.461 2.507.66 3.063 0 3.53l3.097 3.137V1.25c-.199.225-.43.428-.693.61z" transform="matrix(1 0 0 -1 6 18) rotate(-180 1.548 3.958)"/>
                            <path d="M10.928 3.75H1.071c-.344 0-.608.121-.793.363-.185.241-.278.544-.278.906 0 .293.123.61.368.953.246.341.507.61.784.805.151.112.61.443 1.373.994l1.078.78c.263.191.49.356.676.493l.1.074.185.14c.145.108.265.197.361.264.096.068.212.143.349.227.136.084.264.146.385.188.12.042.232.063.334.063h.014c.102 0 .214-.021.335-.063.12-.042.248-.104.385-.188.136-.084.252-.16.348-.227.096-.067.216-.156.362-.265l.184-.138.1-.075.678-.49 2.456-1.777c.326-.237.598-.523.817-.858.218-.334.328-.686.328-1.053 0-.307-.106-.57-.318-.788-.212-.219-.463-.328-.754-.328z" transform="matrix(1 0 0 -1 6 18) rotate(-180 6 6.875)"/>
                        </g>
                    </g>
                </g>
            </g>
        </g>
    </g>
</svg>
