<svg xmlns="http://www.w3.org/2000/svg" width="24" height="24" viewBox="0 0 24 24">
    <g fill="none" fill-rule="evenodd">
        <g>
            <g>
                <g>
                    <g>
                        <path fill="#727272" fill-opacity=".4" d="M12 0C5.373 0 0 5.373 0 12s5.373 12 12 12c2.661 0 5.12-.867 7.11-2.333-.106-.007-.21-.053-.286-.139l-1.966-2.196-1.058 1.624-.874-4.415 4.495 1.398-1.935.831 1.965 2.197c.092.102.123.235.099.36C22.264 19.127 24 15.767 24 12c0-6.627-5.373-12-12-12z" transform="translate(-1260 -1019) translate(1260 943) translate(0 76)"/>
                        <g fill="#FFF" stroke="#FFF" stroke-width=".5">
                            <path d="M1.134 1.923L1.216 2.337 1.226 2.339 1.327 1.923 1.996.018 2.456.018 3.126 1.923 3.233 2.375 3.242 2.375 3.347 1.923 3.884.018 4.449.018 3.485 2.998 3.024 2.998 2.367 1.161 2.223.629 2.214.629 2.076 1.161 1.431 2.998.968 2.998.004.018.572.018zM5.891 1.923L5.974 2.337 5.983 2.339 6.085 1.923 6.754.018 7.214.018 7.883 1.923 7.991 2.375 8 2.375 8.104 1.923 8.642.018 9.206.018 8.243 2.998 7.782 2.998 7.125 1.161 6.981.629 6.972.629 6.834 1.161 6.189 2.998 5.726 2.998 4.762.018 5.33.018zM10.649 1.923L10.732 2.337 10.741 2.339 10.843 1.923 11.512.018 11.972.018 12.641 1.923 12.749 2.375 12.758 2.375 12.862 1.923 13.399.018 13.964.018 13 2.998 12.54 2.998 11.883 1.161 11.739.629 11.73.629 11.592 1.161 10.947 2.998 10.483 2.998 9.52.018 10.087.018z" transform="translate(-1260 -1019) translate(1260 943) translate(0 76) translate(5 11)"/>
                        </g>
                    </g>
                </g>
            </g>
        </g>
    </g>
</svg>
