<svg xmlns="http://www.w3.org/2000/svg" width="16" height="16" viewBox="0 0 16 16">
    <g fill="none" fill-rule="evenodd">
        <path d="M0 0L16 0 16 16 0 16z"/>
        <path fill="#333" fill-rule="nonzero" d="M7.193 10.86c.26.26.68.26.94 0l2.394-2.393c.26-.26.26-.68 0-.94L8.133 5.133c-.26-.26-.68-.26-.94 0-.26.26-.26.68 0 .94l1.254 1.26h-5.78C2.3 7.333 2 7.633 2 8c0 .367.3.667.667.667h5.78L7.193 9.92c-.26.26-.253.687 0 .94zM12.667 2H3.333C2.593 2 2 2.6 2 3.333v2C2 5.7 2.3 6 2.667 6c.366 0 .666-.3.666-.667V4c0-.367.3-.667.667-.667h8c.367 0 .667.3.667.667v8c0 .367-.3.667-.667.667H4c-.367 0-.667-.3-.667-.667v-1.333c0-.367-.3-.667-.666-.667-.367 0-.667.3-.667.667v2C2 13.4 2.6 14 3.333 14h9.334C13.4 14 14 13.4 14 12.667V3.333C14 2.6 13.4 2 12.667 2z"/>
    </g>
</svg>
