<svg xmlns="http://www.w3.org/2000/svg" width="32" height="32" viewBox="0 0 32 32">
    <g fill="none" fill-rule="evenodd">
        <g fill="#81CF7C" fill-rule="nonzero">
            <g>
                <g>
                    <g>
                        <path d="M60 17c1.657 0 3 1.343 3 3v9c0 1.657-1.343 3-3 3h-9c-1.657 0-3-1.343-3-3v-9c0-1.657 1.343-3 3-3zm17 0c1.657 0 3 1.343 3 3v9c0 1.657-1.343 3-3 3h-9c-1.657 0-3-1.343-3-3v-9c0-1.657 1.343-3 3-3zM60 0c1.657 0 3 1.343 3 3v9c0 1.658-1.343 3-3 3h-9c-1.657 0-3-1.342-3-3V3c0-1.657 1.343-3 3-3zm17 0c1.657 0 3 1.343 3 3v9c0 1.658-1.343 3-3 3h-9c-1.657 0-3-1.342-3-3V3c0-1.657 1.343-3 3-3z" transform="translate(-1009 -1356) translate(405 1238) translate(540 90) translate(16 28)"/>
                    </g>
                </g>
            </g>
        </g>
    </g>
</svg>
