<svg xmlns="http://www.w3.org/2000/svg" width="381" height="144" viewBox="0 0 381 144">
    <g fill="none" fill-rule="evenodd">
        <g fill="#CCCCD2" fill-rule="nonzero">
            <g>
                <path d="M90.6 142c1.467 0 2.633-.467 3.5-1.4.867-.933 1.3-2.067 1.3-3.4v-25.6h18c1.467 0 2.633-.467 3.5-1.4.867-.933 1.3-2.067 1.3-3.4V92.6c0-1.467-.433-2.633-1.3-3.5s-2.033-1.3-3.5-1.3h-18v-81c0-1.467-.433-2.633-1.3-3.5S92.067 2 90.6 2h-22c-1.6 0-3.067.3-4.4.9-1.333.6-2.333 1.433-3 2.5L2.2 87C.733 88.867 0 90.867 0 93v13.8c0 1.333.467 2.467 1.4 3.4.933.933 2.067 1.4 3.4 1.4h63.4v25.6c0 1.333.467 2.467 1.4 3.4.933.933 2.067 1.4 3.4 1.4h17.6zM68.8 88.6H28.2l40.6-57.4v57.4zM190.4 144c17.867 0 31.167-4.933 39.9-14.8 8.733-9.867 13.5-22.8 14.3-38.8.267-7.2.4-13.333.4-18.4 0-5.067-.133-11.333-.4-18.8-.667-15.733-5.467-28.533-14.4-38.4C221.267 4.933 208 0 190.4 0c-17.6 0-30.867 4.933-39.8 14.8-8.933 9.867-13.733 22.667-14.4 38.4-.127 3.551-.193 9.395-.2 17.53v2.52c.007 8.009.073 13.726.2 17.15.8 16 5.567 28.933 14.3 38.8 8.733 9.867 22.033 14.8 39.9 14.8zm0-23.4c-8.267 0-14.467-2.7-18.6-8.1-4.133-5.4-6.333-13.1-6.6-23.1-.125-3.64-.192-9.11-.2-16.41v-2.703c.008-7.325.074-12.687.2-16.087.267-9.733 2.467-17.333 6.6-22.8 4.133-5.467 10.333-8.267 18.6-8.4 8.267.133 14.467 2.933 18.6 8.4 4.133 5.467 6.333 13.067 6.6 22.8.133 3.6.2 9.4.2 17.4 0 8-.067 13.933-.2 17.8-.267 10-2.467 17.7-6.6 23.1-4.133 5.4-10.333 8.1-18.6 8.1zM353 142c1.467 0 2.633-.467 3.5-1.4.867-.933 1.3-2.067 1.3-3.4v-25.6h18c1.467 0 2.633-.467 3.5-1.4.867-.933 1.3-2.067 1.3-3.4V92.6c0-1.467-.433-2.633-1.3-3.5s-2.033-1.3-3.5-1.3h-18v-81c0-1.467-.433-2.633-1.3-3.5S354.467 2 353 2h-22c-1.6 0-3.067.3-4.4.9-1.333.6-2.333 1.433-3 2.5l-59 81.6c-1.467 1.867-2.2 3.867-2.2 6v13.8c0 1.333.467 2.467 1.4 3.4.933.933 2.067 1.4 3.4 1.4h63.4v25.6c0 1.333.467 2.467 1.4 3.4.933.933 2.067 1.4 3.4 1.4H353zm-21.8-53.4h-40.6l40.6-57.4v57.4z" transform="translate(-770 -200) translate(770 200)"/>
            </g>
        </g>
    </g>
</svg>
