<svg xmlns="http://www.w3.org/2000/svg" xmlns:xlink="http://www.w3.org/1999/xlink" width="854" height="400" viewBox="0 0 854 400">
    <defs>
        <linearGradient id="hbpm7g4kla" x1="75.571%" x2="-2.423%" y1="46.055%" y2="71.924%">
            <stop offset="0%" stop-color="#F0F0F3"/>
            <stop offset="100%" stop-color="#DCDCE2"/>
        </linearGradient>
        <linearGradient id="ih25j7b6fb" x1="75.571%" x2="-2.423%" y1="46.063%" y2="71.881%">
            <stop offset="0%" stop-color="#F0F0F3"/>
            <stop offset="100%" stop-color="#DCDCE2"/>
        </linearGradient>
        <path id="l21tjslnsc" d="M248.55 400c2.509 0 4.675-.912 6.5-2.736 1.824-1.825 2.736-3.991 2.736-6.5V361.69h30.101c2.509 0 4.675-.912 6.5-2.736 1.824-1.825 2.736-3.99 2.736-6.5v-50.966c0-2.509-.912-4.675-2.737-6.5-1.824-1.824-4.104-2.736-6.84-2.736h-29.76V169.794c0-2.509-.912-4.675-2.737-6.5-1.824-1.824-3.99-2.736-6.499-2.736h-71.148c-5.245 0-9.464 1.938-12.656 5.815L67.943 292.935c-2.509 3.193-3.763 6.727-3.763 10.604v48.915c0 2.508.912 4.674 2.736 6.499 1.825 1.824 3.991 2.736 6.5 2.736H175.69v29.075c0 2.509.913 4.675 2.737 6.5 1.824 1.824 3.99 2.736 6.5 2.736h63.622zm-70.464-103.986H142.17l35.916-49.257v49.257zM429.158 398.42c33.066-.228 58.72-8.324 76.963-24.287 18.244-15.962 28.391-37.056 30.444-63.28.684-9.35 1.026-21.322 1.026-35.917v-1.054c-.017-14.348-.358-26.197-1.026-35.546-1.14-16.875-6.1-31.755-14.88-44.64-8.78-12.884-21.094-23.031-36.942-30.443-15.85-7.41-34.377-11.117-55.585-11.117s-39.736 3.706-55.585 11.117c-15.849 7.412-28.163 17.56-36.942 30.444-8.78 12.884-13.74 27.764-14.88 44.639-.684 9.577-1.026 21.777-1.026 36.6 0 14.594.342 26.567 1.026 35.916 2.052 26.225 12.2 47.319 30.443 63.281 18.244 15.963 43.898 24.059 76.964 24.287zm0-67.044c-11.402 0-17.56-7.411-18.471-22.234-.456-13.226-.684-24.742-.684-34.548 0-10.49.228-21.892.684-34.206.912-14.595 7.069-22.006 18.47-22.234 11.403.228 17.56 7.64 18.472 22.234.456 6.157.684 17.559.684 34.206v.803c-.007 15.992-.235 27.24-.684 33.745-.912 14.823-7.07 22.234-18.471 22.234zM745.563 400c2.509 0 4.675-.912 6.5-2.736 1.824-1.825 2.736-3.991 2.736-6.5V361.69H784.9c2.509 0 4.675-.912 6.5-2.736 1.824-1.825 2.736-3.99 2.736-6.5v-50.966c0-2.509-.912-4.675-2.737-6.5-1.824-1.824-4.104-2.736-6.84-2.736h-29.76V169.794c0-2.509-.912-4.675-2.736-6.5-1.825-1.824-3.991-2.736-6.5-2.736h-71.148c-5.245 0-9.464 1.938-12.656 5.815l-96.803 126.562c-2.509 3.193-3.763 6.727-3.763 10.604v48.915c0 2.508.912 4.674 2.737 6.499 1.824 1.824 3.99 2.736 6.499 2.736h102.276v29.075c0 2.509.912 4.675 2.736 6.5 1.824 1.824 3.99 2.736 6.5 2.736h63.622zM675.1 296.014h-35.916l35.916-49.257v49.257z"/>
    </defs>
    <g fill="none" fill-rule="evenodd">
        <g>
            <g>
                <g fill-rule="nonzero" transform="translate(-533 -194) translate(533 194) translate(9)">
                    <g>
                        <path fill="url(#hbpm7g4kla)" d="M493.833 384.48c7.898-12.562 12.96-26.847 14.885-41.537 1.924-14.892-2.633-28.772-2.025-43.26 1.113-27.86 27.136-47.108 36.249-72.233 11.442-31.71 10.935-67.371-3.038-98.27-6.683-14.893-16.504-28.773-29.971-38.397-20.656-14.791-47.691-18.033-73.207-16.108-37.87 2.836-77.865 18.337-115.937 14.082-21.06-2.33-27.44-23.91-38.274-38.093-12.252-16.108-28.96-28.67-47.489-37.08-34.021-15.5-74.928-16.918-109.659-2.937-37.16 14.994-69.562 51.566-67.435 92.9 1.012 19.149 9.113 38.195 5.366 56.937-4.657 23.605-23.49 45.083-37.059 64.332C11.253 246.09 2.141 271.418.318 297.253c-2.025 29.886 5.67 60.279 21.77 85.708.708 1.013 1.417 2.127 2.227 3.039h468.506c.405-.507.709-1.013 1.012-1.52z" transform="translate(0 13)"/>
                        <path fill="url(#ih25j7b6fb)" d="M792.087 384.595c7.31-11.616 11.996-24.825 13.777-38.408 1.78-13.771-2.437-26.605-1.874-40.001 1.03-25.762 25.117-43.561 33.551-66.793 10.59-29.322 10.122-62.297-2.811-90.869-6.186-13.77-15.277-26.604-27.741-35.504-19.12-13.677-44.143-16.675-67.76-14.895-35.052 2.623-72.071 16.956-107.31 13.021-19.494-2.154-25.398-22.108-35.426-35.223-11.34-14.895-26.804-26.51-43.955-34.286-31.49-14.333-69.353-15.645-101.5-2.717-34.394 13.865-64.385 47.683-62.417 85.904.937 17.705 8.435 35.316 4.967 52.647-4.31 21.827-21.743 41.687-34.301 59.486-13.87 19.673-22.306 43.092-23.993 66.98-1.874 27.636 5.249 55.74 20.15 79.253.656.936 1.312 1.967 2.062 2.81H791.15c.375-.468.656-.937.937-1.405z" transform="translate(0 13)"/>
                        <path fill="#BDBDC8" d="M741.268 384.28c14.41-3.02 27.775-9.295 39.512-22.19 14.178-15.685 16.502-37.294 14.643-58.44-3.37-37.177-50.901-49.957-57.874-85.972-4.3-22.54 24.52-67.966 27.194-90.04 5.23-43.916-21.267-74.007-61.709-94.92-32.772-16.962-71.587-23.235-109.24-22.77-33.933.464-67.867 5.925-100.755 13.244-46.369 10.456-83.44 16.265-131.204 5.577-39.047-8.83-77.28-22.307-117.142-26.49-49.39-5.228-101.569 5.229-141.081 35.32-36.258 27.65-57.176 61.459-54.387 107.35 1.51 24.165 13.132 54.024 18.477 77.724 10.343 45.31-10.691 65.177-12.318 97.475-1.162 23.817 6.74 51.004 28.24 61.344 10.807 5.228 23.358 5.344 35.444 5.344 182.686-.116 365.487 0 548.173 0h15.688c19.989-.116 39.977 1.278 58.339-2.556z" transform="translate(0 13)"/>
                    </g>
                    <path fill="#AFAFBD" d="M746.3 61c4.8-11.9-.9-25.5-12.9-30.3-12-4.8-33.8-2.4-38.6 9.5-4.8 11.9 13.6 20.1 21.7 30.1 11.4 13.9 25 2.6 29.8-9.3z" opacity=".78"/>
                    <path fill="#AFAFBD" d="M344.711 15.905c-7.9-10.1-22.6-11.9-32.7-3.9-10.1 7.9-18.9 28.1-10.9 38.2 7.9 10.1 24.2-1.8 36.9-3.9 17.7-2.9 14.7-20.3 6.7-30.4z" opacity=".266"/>
                    <circle cx="731.5" cy="239.5" r="4.5" fill="#3E479B" opacity=".58"/>
                    <circle cx="521.5" cy="17.5" r="4.5" fill="#BDBDC8"/>
                    <circle cx="764.5" cy="93.5" r="4.5" fill="#F0F0F3"/>
                    <circle cx="670.5" cy="36.5" r="3.5" fill="#9C9CA1" opacity=".58"/>
                    <circle cx="87.5" cy="291.5" r="3.5" fill="#EF929C" opacity=".58"/>
                    <circle cx="122.5" cy="252.5" r="3.5" fill="#3E479B" opacity=".58"/>
                    <circle cx="127.5" cy="105.5" r="1.5" fill="#3E479B" opacity=".58"/>
                    <path fill="#BDBDC8" d="M252.5 7.2c-.6 2.9-3.5 4.8-6.4 4.2-2.9-.6-4.8-3.5-4.2-6.4.6-2.9 3.5-4.8 6.4-4.2 2.9.6 4.8 3.5 4.2 6.4z"/>
                    <path fill="#EFEFF9" d="M456.4 56c-.2 1-1.2 1.6-2.1 1.4-1-.2-1.6-1.2-1.4-2.1.2-.9 1.2-1.6 2.1-1.4.9.2 1.6 1.2 1.4 2.1z" opacity=".58"/>
                </g>
                <path fill="#FFF" fill-rule="nonzero" d="M280 62.1c12.1 1.5 22.8 9.6 27.1 21.8 4.65 13.708-.211 28.379-11.131 36.648L331.1 223c1.7 4.7-.9 9.9-5.7 11.6l-2.4.8c-4.8 1.6-10-.9-11.6-5.7l-35.163-102.541c-13.613.019-26.324-8.458-30.937-22.059-4.3-12.4-.6-25.6 8.2-34.1l9.7 28.6 16.5 5 10-14.1z" opacity=".623" transform="translate(-533 -194) translate(533 194)"/>
                <g fill-rule="nonzero" transform="translate(-533 -194) translate(533 194)">
                    <use fill="#000" xlink:href="#l21tjslnsc"/>
                    <use fill="#FFF" xlink:href="#l21tjslnsc"/>
                </g>
                <g fill-rule="nonzero">
                    <path fill="#8D8D9C" d="M61.5 6.5h-58c-1.7 0-3-1.4-3-3s1.3-3 3-3h58c1.6 0 3 1.4 3 3s-1.4 3-3 3z" opacity=".72" transform="translate(-533 -194) translate(533 194) translate(137 172)"/>
                    <path fill="#DFDFE4" d="M49 25H4c-1.7 0-3-1.4-3-3s1.3-3 3-3h45c1.6 0 3 1.4 3 3s-1.4 3-3 3z" opacity=".404" transform="translate(-533 -194) translate(533 194) translate(137 172)"/>
                    <path fill="#8D8D9C" d="M663 62h-58c-1.7 0-3-1.4-3-3s1.3-3 3-3h58c1.7 0 3 1.4 3 3s-1.3 3-3 3z" opacity=".596" transform="translate(-533 -194) translate(533 194) translate(137 172)"/>
                    <path fill="#AFAFBD" d="M641 76h-37c-1.7 0-3-1.4-3-3s1.3-3 3-3h37c1.7 0 3 1.4 3 3s-1.3 3-3 3z" opacity=".242" transform="translate(-533 -194) translate(533 194) translate(137 172)"/>
                </g>
                <g fill-rule="nonzero">
                    <g fill="#6F6F73" opacity=".33">
                        <path d="M100.3 73.5H5.9c-3.1 0-5.7-2.6-5.7-5.7V6.2C.2 3.1 2.8.5 5.9.5h94.4c3.1 0 5.7 2.6 5.7 5.7v61.6c0 3.1-2.5 5.7-5.7 5.7zM5.9 1.5c-2.6 0-4.7 2.1-4.7 4.7v61.6c0 2.6 2.1 4.7 4.7 4.7h94.4c2.6 0 4.7-2.1 4.7-4.7V6.2c0-2.6-2.1-4.7-4.7-4.7H5.9z" transform="translate(-533 -194) translate(533 194) translate(613 52) translate(22 65)"/>
                        <path d="M106 12.7H.2V4.3C.2 2.2 1.9.5 4 .5h98.1c2.1 0 3.8 1.7 3.8 3.8v8.4h.1zm-104.8-1H105V4.3c0-1.6-1.3-2.8-2.8-2.8H4.1c-1.6 0-2.8 1.3-2.8 2.8v7.4h-.1z" transform="translate(-533 -194) translate(533 194) translate(613 52) translate(22 65)"/>
                        <path d="M83 8.6c-1 0-1.8-.8-1.8-1.8S82 5 83 5s1.8.8 1.8 1.8S84 8.6 83 8.6zM83 6c-.4 0-.8.4-.8.8s.4.8.8.8.8-.4.8-.8-.3-.8-.8-.8zM90.1 8.6c-1 0-1.8-.8-1.8-1.8S89.1 5 90.1 5s1.8.8 1.8 1.8-.8 1.8-1.8 1.8zm0-2.6c-.4 0-.8.4-.8.8s.4.8.8.8.8-.4.8-.8-.4-.8-.8-.8zM97.2 8.6c-1 0-1.8-.8-1.8-1.8S96.2 5 97.2 5s1.8.8 1.8 1.8-.8 1.8-1.8 1.8zm0-2.6c-.4 0-.8.4-.8.8s.4.8.8.8.8-.4.8-.8-.4-.8-.8-.8z" transform="translate(-533 -194) translate(533 194) translate(613 52) translate(22 65)"/>
                    </g>
                    <g fill="#515151" opacity=".16">
                        <path d="M50.4 37.5H3.6c-1.7 0-3.1-1.4-3.1-3.1V3.9C.5 2.2 1.9.8 3.6.8h46.8c1.7 0 3.1 1.4 3.1 3.1v30.6c0 1.6-1.4 3-3.1 3zM3.6 1.8c-1.1 0-2.1.9-2.1 2.1v30.6c0 1.1.9 2.1 2.1 2.1h46.8c1.1 0 2.1-.9 2.1-2.1V3.9c0-1.1-.9-2.1-2.1-2.1H3.6z" transform="translate(-533 -194) translate(533 194) translate(613 52)"/>
                        <path d="M53.5 7.4H.5V3C.5 1.8 1.5.8 2.7.8h48.7c1.2 0 2.2 1 2.2 2.2v4.4h-.1zm-52-1h51V3c0-.6-.5-1.2-1.2-1.2H2.6c-.6 0-1.2.5-1.2 1.2v3.4h.1z" transform="translate(-533 -194) translate(533 194) translate(613 52)"/>
                        <g>
                            <path d="M1.8 2.3C1.2 2.3.7 1.8.7 1.2.7.6 1.2.1 1.8.1c.6 0 1.1.5 1.1 1.1.1.6-.4 1.1-1.1 1.1zm0-1.3c-.1 0-.1.1-.1.1 0 .2.3.2.3 0 0 0-.1-.1-.2-.1zM5.3 2.3c-.6 0-1.1-.5-1.1-1.1C4.2.6 4.7.1 5.3.1c.6 0 1.1.5 1.1 1.1.1.6-.4 1.1-1.1 1.1zm0-1.3c-.1 0-.1.1-.1.1 0 .2.3.2.3 0 0 0-.1-.1-.2-.1zM8.9 2.3c-.6 0-1.1-.5-1.1-1.1C7.8.6 8.3.1 8.9.1c.6 0 1.1.5 1.1 1.1 0 .6-.5 1.1-1.1 1.1zm0-1.3c-.1 0-.1.1-.1.1 0 .2.3.2.3 0-.1 0-.2-.1-.2-.1z" transform="translate(-533 -194) translate(533 194) translate(613 52) translate(40 3)"/>
                        </g>
                    </g>
                    <g fill="#B6B6C1" opacity=".25">
                        <path d="M37.8 28.5H3.1c-1.5 0-2.7-1.2-2.7-2.7V3.3C.4 1.8 1.6.6 3.1.6h34.7c1.5 0 2.7 1.2 2.7 2.7v22.5c0 1.5-1.2 2.7-2.7 2.7zM3.2 1.7c-.9 0-1.7.7-1.7 1.7v22.5c0 .9.7 1.7 1.7 1.7h34.7c.9 0 1.7-.7 1.7-1.7V3.4c0-.9-.7-1.7-1.7-1.7H3.2z" transform="translate(-533 -194) translate(533 194) translate(613 52) translate(66 23)"/>
                        <path d="M40.5 5.9H.5V2.5c0-1 .8-1.7 1.7-1.7h36.5c1 0 1.7.8 1.7 1.7v3.4h.1zm-39-1h38V2.5c0-.4-.3-.7-.7-.7H2.3c-.4 0-.7.3-.7.7v2.4h-.1z" transform="translate(-533 -194) translate(533 194) translate(613 52) translate(66 23)"/>
                        <path d="M9.4 4.3c-.5 0-1-.4-1-1 0-.5.4-1 1-1s1 .4 1 1-.5 1-1 1zM6.7 4.3c-.5 0-1-.4-1-1 0-.5.4-1 1-1 .5 0 1 .4 1 1s-.4 1-1 1zM4.1 4.3c-.5 0-1-.4-1-1 0-.5.4-1 1-1 .5 0 1 .4 1 1s-.4 1-1 1z" transform="translate(-533 -194) translate(533 194) translate(613 52) translate(66 23)"/>
                    </g>
                </g>
                <g fill-rule="nonzero">
                    <g opacity=".33">
                        <path fill="#8D8D9C" d="M78.6 58.8H6.2c-3.1 0-5.7-2.6-5.7-5.7V6.6C.5 3.5 3.1.9 6.2.9h72.4c3.1 0 5.7 2.6 5.7 5.7v46.5c0 3.2-2.5 5.7-5.7 5.7zM6.2 1.9C3.6 1.9 1.5 4 1.5 6.6v46.5c0 2.6 2.1 4.7 4.7 4.7h72.4c2.6 0 4.7-2.1 4.7-4.7V6.6c0-2.6-2.1-4.7-4.7-4.7H6.2z" transform="translate(-533 -194) translate(533 194) translate(144 34) translate(0 51)"/>
                        <path fill="#8D8D9C" d="M84.3 10.8H.5V4.1C.5 2.4 1.9 1 3.6 1h77.5c1.7 0 3.1 1.4 3.1 3.1v6.7h.1z" transform="translate(-533 -194) translate(533 194) translate(144 34) translate(0 51)"/>
                        <path fill="#FFF" d="M18.8 7.5c-.8 0-1.5-.7-1.5-1.5s.7-1.5 1.5-1.5 1.5.7 1.5 1.5-.7 1.5-1.5 1.5zm0-2c-.3 0-.5.2-.5.5s.2.5.5.5.5-.2.5-.5-.2-.5-.5-.5zM13.2 7.5c-.8 0-1.5-.7-1.5-1.5s.7-1.5 1.5-1.5 1.5.7 1.5 1.5-.7 1.5-1.5 1.5zm0-2c-.3 0-.5.2-.5.5s.2.5.5.5.5-.2.5-.5-.2-.5-.5-.5zM7.6 7.5c-.8 0-1.5-.7-1.5-1.5s.7-1.5 1.5-1.5 1.5.7 1.5 1.5-.7 1.5-1.5 1.5zm0-2c-.3 0-.5.2-.5.5s.2.5.5.5.5-.2.5-.5-.2-.5-.5-.5z" transform="translate(-533 -194) translate(533 194) translate(144 34) translate(0 51)"/>
                    </g>
                    <g opacity=".16">
                        <path fill="#6F6F73" d="M40 30H3C1.6 30 .5 28.9.5 27.5V3.3C.5 1.9 1.6.8 3 .8h37c1.4 0 2.5 1.1 2.5 2.5v24.2c0 1.4-1.1 2.5-2.5 2.5zM2.9 1.8c-.9 0-1.5.7-1.5 1.5v24.2c0 .9.7 1.5 1.5 1.5h37c.9 0 1.5-.7 1.5-1.5V3.3c0-.9-.7-1.5-1.5-1.5h-37z" transform="translate(-533 -194) translate(533 194) translate(144 34) translate(59)"/>
                        <path fill="#6F6F73" d="M42.5 6.2H.4V2.6c0-1 .8-1.8 1.8-1.8h38.5c1 0 1.8.8 1.8 1.8v3.6zm-41.1-1h40.1V2.6c0-.4-.4-.8-.8-.8H2.2c-.4 0-.8.4-.8.8v2.6z" transform="translate(-533 -194) translate(533 194) translate(144 34) translate(59)"/>
                        <g fill="#929297">
                            <path d="M6.7 2.5c-.6 0-1-.5-1-1s.5-1 1-1c.6 0 1 .5 1 1s-.4 1-1 1zM4 2.5c-.6 0-1-.5-1-1s.5-1 1-1 1 .5 1 1-.5 1-1 1zM1.2 2.5c-.6 0-1-.5-1-1s.5-1 1-1c.6 0 1 .5 1 1s-.5 1-1 1z" transform="translate(-533 -194) translate(533 194) translate(144 34) translate(59) translate(3 2)"/>
                        </g>
                    </g>
                    <g fill="#777783" opacity=".25">
                        <path d="M30.1 23.1H2.7c-1.2 0-2.2-1-2.2-2.2V3.1C.5 1.9 1.5.9 2.7.9h27.4c1.2 0 2.2 1 2.2 2.2v17.8c0 1.2-1 2.2-2.2 2.2zM2.7 1.9c-.7 0-1.2.5-1.2 1.2v17.8c0 .7.5 1.2 1.2 1.2h27.4c.7 0 1.2-.5 1.2-1.2V3.1c0-.7-.5-1.2-1.2-1.2H2.7z" transform="translate(-533 -194) translate(533 194) translate(144 34) translate(17 18)"/>
                        <path d="M32.3 5.2H.5V2.4C.5 1.6 1.2.9 2 .9h28.9c.8 0 1.5.7 1.5 1.5v2.8h-.1zm-30.8-1h29.8V2.4c0-.3-.2-.5-.5-.5H2c-.3 0-.5.2-.5.5v1.8z" transform="translate(-533 -194) translate(533 194) translate(144 34) translate(17 18)"/>
                        <g>
                            <path d="M1.2 2c-.5 0-.9-.4-.9-.9s.4-.9.9-.9.9.4.9.9-.4.9-.9.9zm0-1c-.1 0-.1.1-.1.1 0 .1.2.1.2 0s0-.1-.1-.1zM3.3 2c-.5 0-.9-.4-.9-.9s.4-.9.9-.9.9.4.9.9-.4.9-.9.9zm0-1c-.1 0-.1.1-.1.1 0 .1.2.1.2 0s0-.1-.1-.1zM5.4 2c-.5 0-.9-.4-.9-.9s.4-.9.9-.9.9.4.9.9-.4.9-.9.9zm0-1c-.1 0-.1.1-.1.1 0 .1.2.1.2 0S5.4 1 5.4 1z" transform="translate(-533 -194) translate(533 194) translate(144 34) translate(17 18) translate(24 2)"/>
                        </g>
                    </g>
                </g>
                <g>
                    <g>
                        <path fill="#AEAEB4" fill-rule="nonzero" d="M60.6 59.2L29.9 69.7c-1.2.4-2.4-.2-2.8-1.4-.4-1.2.2-2.4 1.4-2.8L59.2 55c1.2-.4 2.4.2 2.8 1.4.4 1.1-.2 2.4-1.4 2.8zM62.9 65.9L32.2 76.4c-1.2.4-2.4-.2-2.8-1.4-.4-1.2.2-2.4 1.4-2.8l30.7-10.5c1.2-.4 2.4.2 2.8 1.4.4 1.1-.2 2.4-1.4 2.8z" transform="translate(-533 -194) translate(533 194) translate(0 48) translate(243 14)"/>
                    </g>
                    <g fill-rule="nonzero" opacity=".67">
                        <path fill="#8D8D9C" d="M6.8 69.9l9.4-2.8C18.6 71.9 22 76 26 79.3l-4.7 8.6c-.9 1.6-.3 3.7 1.3 4.6l6.3 3.5c1.6.9 3.7.3 4.6-1.3l4.7-8.6c4.9 1.6 10.2 2.2 15.6 1.7l2.8 9.4c.5 1.8 2.4 2.8 4.2 2.3l6.9-2c1.8-.5 2.8-2.4 2.3-4.2l-2.8-9.4c4.8-2.4 8.9-5.8 12.2-9.8l8.6 4.7c1.6.9 3.7.3 4.6-1.3l3.5-6.3c.9-1.6.3-3.7-1.3-4.6l-8.6-4.7c1.6-4.9 2.2-10.2 1.7-15.6l9.4-2.8c1.8-.5 2.8-2.4 2.3-4.2l-2-6.9c-.5-1.8-2.4-2.8-4.2-2.3L84 32.9c-2.4-4.8-5.8-8.9-9.8-12.2l4.7-8.6c.9-1.6.3-3.7-1.3-4.6L71.3 4c-1.6-.9-3.7-.3-4.6 1.3L62 13.9c-4.9-1.6-10.2-2.2-15.6-1.7l-2.8-9.4C43.1 1 41.2 0 39.4.5l-6.9 2c-1.8.5-2.8 2.4-2.3 4.2l2.8 9.4c-4.8 2.4-8.9 5.8-12.2 9.8l-8.6-4.7c-1.6-.9-3.7-.3-4.6 1.3l-3.5 6.3c-.9 1.6-.3 3.7 1.3 4.6l8.6 4.7c-1.6 4.9-2.2 10.2-1.7 15.6l-9.4 2.8C1.1 57 .1 58.9.6 60.7l2 6.9c.6 1.8 2.4 2.8 4.2 2.3zm37.8-38.7c10.3-3 21.2 2.9 24.2 13.2 3 10.3-2.9 21.2-13.2 24.2-10.3 3-21.2-2.9-24.2-13.2-3.1-10.3 2.9-21.1 13.2-24.2z" transform="translate(-533 -194) translate(533 194) translate(0 48) translate(0 16) translate(353 19)"/>
                        <path fill="#AFAFBD" d="M1.808 31.808l6 .7c.2 3.3 1.1 6.5 2.6 9.3l-4.8 3.7c-.9.7-1.1 2-.4 2.9l2.7 3.5c.7.9 2 1.1 2.9.4l4.8-3.7c2.4 2.1 5.2 3.8 8.4 4.8l-.7 6c-.1 1.1.7 2.2 1.8 2.3l4.4.5c1.1.1 2.2-.7 2.3-1.8l.7-6c3.3-.2 6.5-1.1 9.3-2.6l3.7 4.8c.7.9 2 1.1 2.9.4l3.5-2.7c.9-.7 1.1-2 .4-2.9l-3.7-4.8c2.1-2.4 3.8-5.2 4.8-8.4l6 .7c1.1.1 2.2-.7 2.3-1.8l.5-4.4c.1-1.1-.7-2.2-1.8-2.3l-6-.7c-.2-3.3-1.1-6.5-2.6-9.3l4.8-3.7c.9-.7 1.1-2 .4-2.9l-2.7-3.5c-.7-.9-2-1.1-2.9-.4l-4.8 3.7c-2.4-2.1-5.2-3.8-8.4-4.8l.7-6c.1-1.1-.7-2.2-1.8-2.3l-4.4-.5c-1.1-.1-2.2.7-2.3 1.8l-.7 6c-3.3.2-6.5 1.1-9.3 2.6l-3.7-4.8c-.7-.9-2-1.1-2.9-.4l-3.5 2.7c-.9.7-1.1 2-.4 2.9l3.7 4.8c-2.1 2.4-3.8 5.2-4.8 8.4l-6-.7c-1.1-.1-2.2.7-2.3 1.8l-.5 4.4c-.1 1.1.7 2.2 1.8 2.3zm30.8-12.6c6.6.8 11.2 6.8 10.4 13.4-.8 6.6-6.8 11.2-13.4 10.4-6.6-.8-11.2-6.8-10.4-13.4.8-6.6 6.8-11.2 13.4-10.4z" transform="translate(-533 -194) translate(533 194) translate(0 48) translate(0 16) translate(0 148)"/>
                        <g>
                            <path fill="#8D8D9C" stroke="#8D8D9C" d="M20.5 42h-.2l-2.9-.4c-.5-.1-.9-.3-1.2-.7-.3-.4-.4-.9-.4-1.4l.4-3.5c-1.8-.6-3.5-1.6-4.9-2.8l-2.8 2.2c-.4.3-.9.4-1.4.4-.5-.1-.9-.3-1.2-.7l-1.8-2.3c-.6-.8-.5-2 .3-2.6L7.2 28c-.8-1.7-1.3-3.6-1.5-5.5l-3.5-.4c-.5-.1-.9-.3-1.2-.7-.3-.4-.4-.9-.4-1.4l.4-2.9c.1-.5.3-.9.7-1.2.4-.3.9-.4 1.4-.4l3.5.4c.6-1.8 1.6-3.5 2.8-4.9L7.2 8.2c-.6-.8-.5-2 .3-2.6l2.3-1.8c.4-.3.9-.4 1.4-.4.5.1.9.3 1.2.7l2.2 2.8c1.7-.8 3.5-1.3 5.5-1.5l.4-3.5c.1-.5.3-.9.7-1.2.4-.3.9-.4 1.4-.4l2.9.4c.5.1.9.3 1.2.7.3.4.4.9.4 1.4l-.4 3.5c1.8.6 3.5 1.6 4.9 2.8l2.8-2.2c.4-.3.9-.4 1.4-.4.5.1.9.3 1.2.7l1.8 2.3c.6.8.5 2-.3 2.6l-2.8 2.2c.8 1.7 1.3 3.6 1.5 5.5l3.5.4c1 .1 1.7 1.1 1.6 2.1l-.4 2.9c-.1.5-.3.9-.7 1.2-.4.3-.9.4-1.4.4l-3.5-.4c-.6 1.8-1.6 3.5-2.8 4.9l2.2 2.8c.6.8.5 2-.3 2.6l-2.3 1.8c-.4.3-.9.4-1.4.4-.5-.1-.9-.3-1.2-.7l-2.2-2.8c-1.7.8-3.5 1.3-5.5 1.5l-.4 3.5c-.2.9-1 1.6-1.9 1.6zm-9.2-10l.3.3c1.5 1.4 3.3 2.4 5.3 3l.4.1-.5 4.3c0 .2 0 .4.2.6.1.2.3.3.6.3l2.9.4c.5.1.9-.3.9-.7l.5-4.3h.4c2-.1 4-.7 5.8-1.6l.4-.2 2.7 3.4c.1.2.3.3.6.3.2 0 .4 0 .6-.2l2.3-1.8c.4-.3.4-.8.1-1.2l-2.7-3.4.3-.3c1.4-1.5 2.4-3.3 3-5.3l.1-.4 4.3.5c.2 0 .4 0 .6-.2.2-.1.3-.3.3-.6l.4-2.9c.1-.5-.3-.9-.7-.9l-4.3-.5v-.4c-.1-2.1-.7-4-1.6-5.9l-.2-.4 3.4-2.7c.4-.3.4-.8.1-1.2L36 7.8c-.1-.2-.3-.3-.6-.3-.2 0-.4 0-.6.2l-3.4 2.7-.3-.3c-1.5-1.4-3.3-2.4-5.3-3l-.4-.1.5-4.3c0-.2 0-.4-.2-.6-.1-.2-.3-.3-.6-.3l-2.9-.4c-.2 0-.4 0-.6.2-.2.1-.3.3-.3.6l-.5 4.3h-.4c-2.1.1-4 .7-5.8 1.6l-.4.2-2.7-3.4c-.1-.2-.3-.3-.6-.3-.2 0-.4 0-.6.2L8 6.6c-.4.3-.4.8-.1 1.2l2.7 3.4-.3.3c-1.4 1.5-2.4 3.3-3 5.3l-.1.4-4.3-.5c-.2 0-.4 0-.6.2-.2.1-.3.3-.3.6l-.4 2.9c0 .2 0 .4.2.6.1.2.3.3.6.3h0l4.3.5v.4c.1 2.1.7 4 1.6 5.9l.2.4-3.4 2.7c-.4.3-.4.8-.1 1.2l1.8 2.3c.1.2.3.3.6.3.2 0 .4 0 .6-.2l3.3-2.8zm10.1-2.5c-.3 0-.7 0-1-.1-2.2-.3-4.2-1.4-5.5-3.1-1.4-1.8-2-3.9-1.7-6.1.3-2.2 1.4-4.2 3.1-5.5 1.7-1.4 3.9-2 6.1-1.7 4.5.6 7.8 4.7 7.2 9.3-.5 4.1-4.1 7.2-8.2 7.2zm0-15.6c-1.6 0-3.2.5-4.5 1.5-1.5 1.2-2.5 2.9-2.8 4.9-.2 1.9.3 3.9 1.5 5.4 1.2 1.5 2.9 2.5 4.8 2.8 4 .5 7.6-2.4 8.1-6.4s-2.3-7.7-6.3-8.2h-.8z" transform="translate(-533 -194) translate(533 194) translate(0 48) translate(0 16) translate(435)"/>
                            <path fill="#A3A3A9" stroke="#A3A3A9" d="M20.5 42h-.2l-2.9-.4c-.5-.1-.9-.3-1.2-.7-.3-.4-.4-.9-.4-1.4l.4-3.5c-1.8-.6-3.5-1.6-4.9-2.8l-2.8 2.2c-.4.3-.9.4-1.4.4-.5-.1-.9-.3-1.2-.7l-1.8-2.3c-.6-.8-.5-2 .3-2.6L7.2 28c-.8-1.7-1.3-3.6-1.5-5.5l-3.5-.4c-.5-.1-.9-.3-1.2-.7-.3-.4-.4-.9-.4-1.4l.4-2.9c.1-.5.3-.9.7-1.2.4-.3.9-.4 1.4-.4l3.5.4c.6-1.8 1.6-3.5 2.8-4.9L7.2 8.2c-.6-.8-.5-2 .3-2.6l2.3-1.8c.4-.3.9-.4 1.4-.4.5.1.9.3 1.2.7l2.2 2.8c1.7-.8 3.5-1.3 5.5-1.5l.4-3.5c.1-.5.3-.9.7-1.2.4-.3.9-.4 1.4-.4l2.9.4c.5.1.9.3 1.2.7.3.4.4.9.4 1.4l-.4 3.5c1.8.6 3.5 1.6 4.9 2.8l2.8-2.2c.4-.3.9-.4 1.4-.4.5.1.9.3 1.2.7l1.8 2.3c.6.8.5 2-.3 2.6l-2.8 2.2c.8 1.7 1.3 3.6 1.5 5.5l3.5.4c1 .1 1.7 1.1 1.6 2.1l-.4 2.9c-.1.5-.3.9-.7 1.2-.4.3-.9.4-1.4.4l-3.5-.4c-.6 1.8-1.6 3.5-2.8 4.9l2.2 2.8c.6.8.5 2-.3 2.6l-2.3 1.8c-.4.3-.9.4-1.4.4-.5-.1-.9-.3-1.2-.7l-2.2-2.8c-1.7.8-3.5 1.3-5.5 1.5l-.4 3.5c-.2.9-1 1.6-1.9 1.6zm-9.2-10l.3.3c1.5 1.4 3.3 2.4 5.3 3l.4.1-.5 4.3c0 .2 0 .4.2.6.1.2.3.3.6.3l2.9.4c.5.1.9-.3.9-.7l.5-4.3h.4c2-.1 4-.7 5.8-1.6l.4-.2 2.7 3.4c.1.2.3.3.6.3.2 0 .4 0 .6-.2l2.3-1.8c.4-.3.4-.8.1-1.2l-2.7-3.4.3-.3c1.4-1.5 2.4-3.3 3-5.3l.1-.4 4.3.5c.2 0 .4 0 .6-.2.2-.1.3-.3.3-.6l.4-2.9c.1-.5-.3-.9-.7-.9l-4.3-.5v-.4c-.1-2.1-.7-4-1.6-5.9l-.2-.4 3.4-2.7c.4-.3.4-.8.1-1.2L36 7.8c-.1-.2-.3-.3-.6-.3-.2 0-.4 0-.6.2l-3.4 2.7-.3-.3c-1.5-1.4-3.3-2.4-5.3-3l-.4-.1.5-4.3c0-.2 0-.4-.2-.6-.1-.2-.3-.3-.6-.3l-2.9-.4c-.2 0-.4 0-.6.2-.2.1-.3.3-.3.6l-.5 4.3h-.4c-2.1.1-4 .7-5.8 1.6l-.4.2-2.7-3.4c-.1-.2-.3-.3-.6-.3-.2 0-.4 0-.6.2L8 6.6c-.4.3-.4.8-.1 1.2l2.7 3.4-.3.3c-1.4 1.5-2.4 3.3-3 5.3l-.1.4-4.3-.5c-.2 0-.4 0-.6.2-.2.1-.3.3-.3.6l-.4 2.9c0 .2 0 .4.2.6.1.2.3.3.6.3h0l4.3.5v.4c.1 2.1.7 4 1.6 5.9l.2.4-3.4 2.7c-.4.3-.4.8-.1 1.2l1.8 2.3c.1.2.3.3.6.3.2 0 .4 0 .6-.2l3.3-2.8zm10.1-2.5c-.3 0-.7 0-1-.1-2.2-.3-4.2-1.4-5.5-3.1-1.4-1.8-2-3.9-1.7-6.1.3-2.2 1.4-4.2 3.1-5.5 1.7-1.4 3.9-2 6.1-1.7 4.5.6 7.8 4.7 7.2 9.3-.5 4.1-4.1 7.2-8.2 7.2zm0-15.6c-1.6 0-3.2.5-4.5 1.5-1.5 1.2-2.5 2.9-2.8 4.9-.2 1.9.3 3.9 1.5 5.4 1.2 1.5 2.9 2.5 4.8 2.8 4 .5 7.6-2.4 8.1-6.4s-2.3-7.7-6.3-8.2h-.8z" transform="translate(-533 -194) translate(533 194) translate(0 48) translate(0 16) translate(435) translate(355 81)"/>
                        </g>
                    </g>
                    <g fill-rule="nonzero" transform="translate(-533 -194) translate(533 194) translate(0 48) translate(502)">
                        <path fill="#FFF" d="M32.24 94.467l7.579 2.227-21.206 72.147-7.58-2.228L32.24 94.467zM50.8 0c27.007 0 48.9 21.893 48.9 48.9 0 27.007-21.893 48.9-48.9 48.9-27.007 0-48.9-21.893-48.9-48.9C1.9 21.893 23.793 0 50.8 0z"/>
                        <circle cx="50.777" cy="48.926" r="38.799" fill="#BDBDC8" transform="rotate(-74.627 50.777 48.926)"/>
                        <path fill="#8D8D9C" d="M14.1 188.7l-8.6-2.5c-3.3-1-5.2-4.5-4.3-7.8l16.9-57.5c1-3.3 4.5-5.2 7.8-4.3l8.6 2.5c3.3 1 5.2 4.5 4.3 7.8L22 184.5c-1 3.3-4.5 5.2-7.9 4.2z"/>
                        <circle cx="42" cy="33" r="10" fill="#CBCBD4"/>
                    </g>
                </g>
            </g>
        </g>
    </g>
</svg>
