<svg xmlns="http://www.w3.org/2000/svg" width="24" height="24" viewBox="0 0 24 24">
    <g fill="none" fill-rule="evenodd">
        <g>
            <g>
                <g>
                    <g transform="translate(-1260 -1051) translate(1260 943) translate(0 108)">
                        <path d="M0 0H24V24H0z"/>
                        <circle cx="12" cy="12" r="12" fill="#727272" fill-opacity=".4"/>
                        <path fill="#FFF" fill-rule="nonzero" d="M16.757 11.693c-.162-.159-.359-.238-.59-.238h-.278V9.818c0-1.045-.382-1.943-1.146-2.693C13.979 6.375 13.065 6 12 6s-1.98.375-2.743 1.125c-.764.75-1.146 1.648-1.146 2.693v1.637h-.278c-.231 0-.428.08-.59.238-.162.16-.243.352-.243.58v4.909c0 .227.081.42.243.58.162.158.359.238.59.238h8.334c.231 0 .428-.08.59-.239.162-.159.243-.352.243-.58v-4.908c0-.228-.081-.42-.243-.58zm-2.535-.238H9.778V9.818c0-.602.217-1.116.65-1.542.435-.427.959-.64 1.572-.64.614 0 1.137.213 1.571.64.434.426.651.94.651 1.542v1.637z"/>
                    </g>
                </g>
            </g>
        </g>
    </g>
</svg>
