<svg xmlns="http://www.w3.org/2000/svg" width="64" height="64" viewBox="0 0 64 64">
    <g fill="none" fill-rule="evenodd">
        <path d="M0 0H64V64H0z"/>
        <path fill="#C9D5EA" fill-rule="nonzero" d="M18.667 37.875L32 24.437l13.333 13.438h-8v10.75H26.667v-10.75h-8zM51.6 27.205C49.787 17.962 41.707 11 32 11c-7.707 0-14.4 4.407-17.733 10.83C6.24 22.718 0 29.545 0 37.876 0 46.781 7.163 54 16 54h34.667c3.536 0 6.927-1.416 9.428-3.936 2.5-2.52 3.905-5.938 3.905-9.502 0-7.094-5.467-12.846-12.4-13.356z"/>
    </g>
</svg>
